<svg xmlns="http://www.w3.org/2000/svg" width="512" height="512" viewBox="0 0 512 512" role="img" aria-label="LojaHub">
  <defs>
    <linearGradient id="lojahub-bg" x1="64" y1="48" x2="448" y2="464" gradientUnits="userSpaceOnUse">
      <stop stop-color="#0d9488"/>
      <stop offset="0.55" stop-color="#0f766e"/>
      <stop offset="1" stop-color="#115e59"/>
    </linearGradient>
    <linearGradient id="lojahub-shine" x1="96" y1="64" x2="416" y2="448" gradientUnits="userSpaceOnUse">
      <stop stop-color="#ffffff" stop-opacity="0.22"/>
      <stop offset="0.45" stop-color="#ffffff" stop-opacity="0.05"/>
      <stop offset="1" stop-color="#ffffff" stop-opacity="0"/>
    </linearGradient>
  </defs>
  <rect width="512" height="512" rx="48" fill="url(#lojahub-bg)"/>
  <rect width="512" height="512" rx="48" fill="url(#lojahub-shine)"/>
  <g transform="translate(128 96) scale(5.33)">
    <rect x="2" y="2" width="44" height="44" rx="12" fill="#ffffff" fill-opacity="0.12"/>
    <rect x="11" y="10" width="26" height="19" rx="3.5" fill="#fff" fill-opacity="0.98"/>
    <rect x="13.5" y="12.5" width="21" height="14" rx="2" fill="#f0fdfa"/>
    <rect x="15.5" y="15" width="10" height="2" rx="1" fill="#0f766e"/>
    <rect x="15.5" y="19" width="14" height="2" rx="1" fill="#0d9488"/>
    <rect x="15.5" y="23" width="7.5" height="2" rx="1" fill="#5eead4"/>
    <path d="M14 31.5h20c.8 0 1.2.9.7 1.5l-1.2 1.6c-.3.4-.8.4-1.1 0l-.9-1.2c-.4-.5-1.1-.5-1.5 0l-.9 1.2c-.3.4-.8.4-1.1 0l-.9-1.2c-.4-.5-1.1-.5-1.5 0l-.9 1.2c-.3.4-.8.4-1.1 0l-1.2-1.6c-.5-.6-.1-1.5.7-1.5z" fill="#fff" fill-opacity="0.97"/>
    <rect x="17" y="33.2" width="1.4" height="5.5" rx="0.4" fill="#0f766e"/>
    <rect x="19.2" y="33.2" width="0.8" height="5.5" rx="0.4" fill="#5eead4" fill-opacity="0.7"/>
    <rect x="20.8" y="33.2" width="2" height="5.5" rx="0.4" fill="#0f766e"/>
    <rect x="23.6" y="33.2" width="0.8" height="5.5" rx="0.4" fill="#5eead4" fill-opacity="0.7"/>
    <rect x="25.2" y="33.2" width="1.4" height="5.5" rx="0.4" fill="#0f766e"/>
    <circle cx="35" cy="35" r="6.5" fill="#14b8a6"/>
    <path d="M32.2 35l2 2 4.2-4.5" stroke="#fff" stroke-width="2" stroke-linecap="round" stroke-linejoin="round"/>
  </g>
  <text x="256" y="430" text-anchor="middle" font-family="system-ui,sans-serif" font-size="48" font-weight="700" fill="#ffffff" letter-spacing="-0.02em">LojaHub</text>
  <text x="256" y="472" text-anchor="middle" font-family="system-ui,sans-serif" font-size="18" font-weight="600" fill="#99f6e4" letter-spacing="0.14em">PDV · MULTI-LOJA</text>
</svg>
